<mxfile host="app.diagrams.net" modified="2022-02-18T09:10:13.567Z" agent="5.0 (Windows NT 10.0; Win64; x64) AppleWebKit/537.36 (KHTML, like Gecko) Chrome/98.0.4758.102 Safari/537.36" etag="c2eY57HFqLOcvbDAo4lq" version="16.4.2" type="github">
  <diagram id="p0rojfe8Y4oH51wE3MVX" name="Page-1">
    <mxGraphModel dx="782" dy="436" grid="1" gridSize="10" guides="1" tooltips="1" connect="1" arrows="1" fold="1" page="1" pageScale="1" pageWidth="827" pageHeight="1169" math="0" shadow="0">
      <root>
        <mxCell id="0" />
        <mxCell id="1" parent="0" />
        <mxCell id="poy6jHFVQemUufDgNdJC-1" value="redis" style="rounded=1;whiteSpace=wrap;html=1;" vertex="1" parent="1">
          <mxGeometry x="580" y="140" width="160" height="60" as="geometry" />
        </mxCell>
        <mxCell id="poy6jHFVQemUufDgNdJC-2" value="elasticsearch" style="rounded=1;whiteSpace=wrap;html=1;" vertex="1" parent="1">
          <mxGeometry x="580" y="280" width="160" height="60" as="geometry" />
        </mxCell>
        <mxCell id="poy6jHFVQemUufDgNdJC-3" value="kafka" style="rounded=1;whiteSpace=wrap;html=1;" vertex="1" parent="1">
          <mxGeometry x="120" y="200" width="120" height="60" as="geometry" />
        </mxCell>
      </root>
    </mxGraphModel>
  </diagram>
</mxfile>
